0
SECTION
2
HEADER
9
$INSUNITS
70
4
0
ENDSEC
0
SECTION
2
TABLES
0
TABLE
2
LTYPE
0
LTYPE
72
65
70
64
2
CONTINUOUS
3
______
73
0
40
0
0
ENDTAB
0
TABLE
2
LAYER
0
ENDTAB
0
ENDSEC
0
SECTION
2
ENTITIES
0
LINE
8
0
10
-4
20
14
11
14
21
14
0
LINE
8
0
10
14
20
14
11
14
21
-4
0
LINE
8
0
10
14
20
-4
11
-4
21
-4
0
LINE
8
0
10
-4
20
-4
11
-4
21
14
0
LINE
8
0
10
-4
20
33
11
14
21
33
0
LINE
8
0
10
14
20
33
11
14
21
15
0
LINE
8
0
10
14
20
15
11
-4
21
15
0
LINE
8
0
10
-4
20
15
11
-4
21
33
0
LINE
8
0
10
-4
20
52
11
14
21
52
0
LINE
8
0
10
14
20
52
11
14
21
34
0
LINE
8
0
10
14
20
34
11
-4
21
34
0
LINE
8
0
10
-4
20
34
11
-4
21
52
0
LINE
8
0
10
15
20
14
11
33
21
14
0
LINE
8
0
10
33
20
14
11
33
21
-4
0
LINE
8
0
10
33
20
-4
11
15
21
-4
0
LINE
8
0
10
15
20
-4
11
15
21
14
0
LINE
8
0
10
15
20
33
11
33
21
33
0
LINE
8
0
10
33
20
33
11
33
21
15
0
LINE
8
0
10
33
20
15
11
15
21
15
0
LINE
8
0
10
15
20
15
11
15
21
33
0
LINE
8
0
10
15
20
52
11
33
21
52
0
LINE
8
0
10
33
20
52
11
33
21
34
0
LINE
8
0
10
33
20
34
11
15
21
34
0
LINE
8
0
10
15
20
34
11
15
21
52
0
LINE
8
0
10
34
20
14
11
52
21
14
0
LINE
8
0
10
52
20
14
11
52
21
-4
0
LINE
8
0
10
52
20
-4
11
34
21
-4
0
LINE
8
0
10
34
20
-4
11
34
21
14
0
LINE
8
0
10
34
20
33
11
52
21
33
0
LINE
8
0
10
52
20
33
11
52
21
15
0
LINE
8
0
10
52
20
15
11
34
21
15
0
LINE
8
0
10
34
20
15
11
34
21
33
0
LINE
8
0
10
34
20
52
11
52
21
52
0
LINE
8
0
10
52
20
52
11
52
21
34
0
LINE
8
0
10
52
20
34
11
34
21
34
0
LINE
8
0
10
34
20
34
11
34
21
52
0
LINE
8
0
10
53
20
14
11
71
21
14
0
LINE
8
0
10
71
20
14
11
71
21
-4
0
LINE
8
0
10
71
20
-4
11
53
21
-4
0
LINE
8
0
10
53
20
-4
11
53
21
14
0
LINE
8
0
10
53
20
33
11
71
21
33
0
LINE
8
0
10
71
20
33
11
71
21
15
0
LINE
8
0
10
71
20
15
11
53
21
15
0
LINE
8
0
10
53
20
15
11
53
21
33
0
LINE
8
0
10
53
20
52
11
71
21
52
0
LINE
8
0
10
71
20
52
11
71
21
34
0
LINE
8
0
10
71
20
34
11
53
21
34
0
LINE
8
0
10
53
20
34
11
53
21
52
0
LINE
8
0
10
6
20
-31
11
24
21
-31
0
LINE
8
0
10
24
20
-31
11
24
21
-49
0
LINE
8
0
10
24
20
-49
11
6
21
-49
0
LINE
8
0
10
6
20
-49
11
6
21
-31
0
LINE
8
0
10
46
20
-31
11
64
21
-31
0
LINE
8
0
10
64
20
-31
11
64
21
-49
0
LINE
8
0
10
64
20
-49
11
46
21
-49
0
LINE
8
0
10
46
20
-49
11
46
21
-31
0
LINE
8
0
10
26
20
-41
11
44
21
-41
0
LINE
8
0
10
44
20
-41
11
44
21
-59
0
LINE
8
0
10
44
20
-59
11
26
21
-59
0
LINE
8
0
10
26
20
-59
11
26
21
-41
0
LINE
8
0
10
26
20
-22
11
44
21
-22
0
LINE
8
0
10
44
20
-22
11
44
21
-40
0
LINE
8
0
10
44
20
-40
11
26
21
-40
0
LINE
8
0
10
26
20
-40
11
26
21
-22
0
ENDSEC
0
EOF